<?xml version="1.0" encoding="UTF-8"?>
<svg width="131px" height="30px" viewBox="0 0 131 30" version="1.1" xmlns="http://www.w3.org/2000/svg" xmlns:xlink="http://www.w3.org/1999/xlink">
    <!-- Generator: Sketch 56 (81588) - https://sketch.com -->
    <title>W3Layouts@3x</title>
    <desc>Created with Sketch.</desc>
    <defs>
        <path d="M6.016,23.064 C5.18399584,23.064 4.72533376,22.8613354 4.64,22.456 L0.352,1.752 C0.330666632,1.66666624 0.32533328,1.57600048 0.336,1.48 C0.34666672,1.38399952 0.352,1.32533344 0.352,1.304 C0.352,0.79199744 0.90666112,0.536 2.016,0.536 L2.752,0.536 C3.86133888,0.536 4.45866624,0.81333056 4.544,1.368 L6.528,14.424 L6.912,17.24 L7.104,18.808 C7.25333408,17.7839949 7.4879984,16.3120096 7.808,14.392 L10.112,1.176 C10.1546669,0.94133216 10.2826656,0.77600048 10.496,0.68 C10.7093344,0.58399952 11.0399978,0.536 11.488,0.536 L12.736,0.536 C13.1840022,0.536 13.5199989,0.58399952 13.744,0.68 C13.9680011,0.77600048 14.1013331,0.94133216 14.144,1.176 L16.416,14.424 C16.5226672,14.8933357 16.6613325,15.7679936 16.832,17.048 C16.8746669,17.5173357 16.9599994,18.1253296 17.088,18.872 L17.696,14.424 L19.712,1.368 C19.7760003,0.81333056 20.3626611,0.536 21.472,0.536 L22.08,0.536 C23.2106723,0.536 23.776,0.79199744 23.776,1.304 L23.712,1.752 L19.392,22.456 C19.3066662,22.8613354 18.8480042,23.064 18.016,23.064 L16.192,23.064 C15.3599958,23.064 14.9120003,22.8613354 14.848,22.456 L12.448,10.392 L12.032,6.776 L11.616,10.392 L9.184,22.456 C9.09866624,22.8613354 8.65067072,23.064 7.84,23.064 L6.016,23.064 Z M30.816,23.224 C29.3653261,23.224 27.97334,23.0160021 26.64,22.6 C25.30666,22.1839979 24.64,21.613337 24.64,20.888 C24.64,20.546665 24.8053317,20.1040027 25.136,19.56 C25.4666683,19.0159973 25.7706653,18.744 26.048,18.744 C26.1760006,18.744 26.4213315,18.8506656 26.784,19.064 C27.3813363,19.3626682 27.9039978,19.5919992 28.352,19.752 C28.8000022,19.9120008 29.3439968,19.992 29.984,19.992 C30.9653382,19.992 31.7866634,19.6933363 32.448,19.096 C33.1093366,18.4986637 33.44,17.6026726 33.44,16.408 C33.44,15.1706605 33.1200032,14.2640029 32.48,13.688 C31.8399968,13.1119971 30.8693398,12.824 29.568,12.824 L28.384,12.824 C28.0853318,12.824 27.8666674,12.7173344 27.728,12.504 C27.5893326,12.2906656 27.52,11.9386691 27.52,11.448 L27.52,10.968 C27.52,10.4773309 27.5893326,10.1253344 27.728,9.912 C27.8666674,9.6986656 28.0853318,9.592 28.384,9.592 L29.312,9.592 C30.4000054,9.592 31.2426637,9.2720032 31.84,8.632 C32.4373363,7.9919968 32.736,7.2453376 32.736,6.392 C32.736,5.58132928 32.506669,4.92000256 32.048,4.408 C31.589331,3.89599744 30.8906714,3.64 29.952,3.64 C29.3333302,3.64 28.8266686,3.70933264 28.432,3.848 C28.0373314,3.98666736 27.6746683,4.15199904 27.344,4.344 C27.0133317,4.53600096 26.8053338,4.632 26.72,4.632 C26.4639987,4.632 26.165335,4.37066928 25.824,3.848 C25.482665,3.32533072 25.312,2.87200192 25.312,2.488 C25.312,1.8479968 25.8666611,1.33600192 26.976,0.952 C28.0853389,0.56799808 29.3333264,0.376 30.72,0.376 C32.5973427,0.376 34.0799946,0.87199504 35.168,1.864 C36.2560054,2.85600496 36.8,4.2053248 36.8,5.912 C36.8,7.02133888 36.5226694,7.975996 35.968,8.776 C35.4133306,9.576004 34.6666714,10.1786646 33.728,10.584 L33.728,10.712 C34.9013392,11.1173354 35.8293299,11.8266616 36.512,12.84 C37.1946701,13.8533384 37.536,15.0746595 37.536,16.504 C37.536,17.8906736 37.2480029,19.0906616 36.672,20.104 C36.0959971,21.1173384 35.3013384,21.890664 34.288,22.424 C33.2746616,22.957336 32.1173398,23.224 30.816,23.224 Z M41.888,23 C41.5039981,23 41.2266675,22.9093342 41.056,22.728 C40.8853325,22.5466658 40.8,22.2426688 40.8,21.816 L40.8,1.464 C40.8,0.84533024 41.3439946,0.536 42.432,0.536 L43.424,0.536 C44.0000029,0.536 44.4159987,0.61066592 44.672,0.76 C44.9280013,0.90933408 45.056,1.1439984 45.056,1.464 L45.056,19.416 L50.496,19.416 C50.7946682,19.416 51.0079994,19.5279989 51.136,19.752 C51.2640006,19.9760011 51.328,20.3226643 51.328,20.792 L51.328,21.624 C51.328,22.0933357 51.2640006,22.4399989 51.136,22.664 C51.0079994,22.8880011 50.7946682,23 50.496,23 L41.888,23 Z M57.664,23.224 C56.2346595,23.224 55.1306706,22.7813378 54.352,21.896 C53.5733294,21.0106622 53.184,19.7893411 53.184,18.232 C53.184,16.4186576 53.8186603,14.978672 55.088,13.912 C56.3573397,12.845328 58.3359866,12.312 61.024,12.312 L61.024,11.448 C61.024,9.99732608 60.2773408,9.272 58.784,9.272 C58.2079971,9.272 57.7066688,9.34133264 57.28,9.48 C56.8533312,9.61866736 56.3946691,9.80533216 55.904,10.04 C55.6266653,10.2106675 55.4240006,10.296 55.296,10.296 C55.0186653,10.296 54.7040018,10.0026696 54.352,9.416 C53.9999982,8.8293304 53.824,8.3760016 53.824,8.056 C53.824,7.71466496 54.0746642,7.38933488 54.576,7.08 C55.0773358,6.77066512 55.7333293,6.52000096 56.544,6.328 C57.3546707,6.13599904 58.1866624,6.04 59.04,6.04 C61.0880102,6.04 62.6026618,6.50932864 63.584,7.448 C64.5653382,8.38667136 65.056,9.67732512 65.056,11.32 L65.056,17.688 C65.056,19.1386739 65.1199994,20.1999966 65.248,20.872 C65.3760006,21.5440034 65.44,21.9546659 65.44,22.104 C65.44,22.4026682 65.0880035,22.6319992 64.384,22.792 C63.6799965,22.9520008 63.0506694,23.032 62.496,23.032 C62.1759984,23.032 61.9413341,22.8933347 61.792,22.616 C61.6426659,22.3386653 61.4933341,21.9013363 61.344,21.304 C60.9813315,21.837336 60.4853365,22.2906648 59.856,22.664 C59.2266635,23.0373352 58.4960042,23.224 57.664,23.224 Z M58.784,20.12 C59.2320022,20.12 59.6533314,20.0026678 60.048,19.768 C60.4426686,19.5333322 60.7679987,19.2133354 61.024,18.808 L61.024,14.936 C58.2933197,14.936 56.928,15.9493232 56.928,17.976 C56.928,18.6586701 57.0826651,19.1866648 57.392,19.56 C57.7013349,19.9333352 58.1653302,20.12 58.784,20.12 Z M78.272,6.2 C79.3600054,6.2 79.904,6.4133312 79.904,6.84 C79.904,6.88266688 79.8826669,7.07466496 79.84,7.416 L74.112,28.952 C73.9626659,29.4000022 73.4293379,29.624 72.512,29.624 L71.872,29.624 C70.8479949,29.624 70.336,29.4106688 70.336,28.984 C70.336,28.9199997 70.3679997,28.7386682 70.432,28.44 L72.416,21.432 C72.1813322,21.4106666 71.9946674,21.3573338 71.856,21.272 C71.7173326,21.1866662 71.6160003,21.0373344 71.552,20.824 L67.68,7.544 C67.5946662,7.28799872 67.552,7.06400096 67.552,6.872 C67.552,6.42399776 68.0426618,6.2 69.024,6.2 L70.08,6.2 C70.5066688,6.2 70.8426654,6.24799952 71.088,6.344 C71.3333346,6.44000048 71.4773331,6.61599872 71.52,6.872 L73.12,14.104 C73.2693341,14.8720038 73.4506656,15.9493264 73.664,17.336 L73.824,17.336 C73.8880003,17.0373318 73.9626662,16.5680032 74.048,15.928 C74.0906669,15.6079984 74.1973325,15.0000045 74.368,14.104 L76.032,6.808 C76.1173338,6.40266464 76.6186621,6.2 77.536,6.2 L78.272,6.2 Z M87.808,23.224 C85.7173229,23.224 84.1280054,22.4880074 83.04,21.016 C81.9519946,19.5439926 81.408,17.4213472 81.408,14.648 C81.408,11.8533194 81.9466613,9.72000736 83.024,8.248 C84.1013387,6.77599264 85.6959894,6.04 87.808,6.04 C89.9200106,6.04 91.5146613,6.77599264 92.592,8.248 C93.6693387,9.72000736 94.208,11.8533194 94.208,14.648 C94.208,17.4426806 93.6640054,19.5706594 92.576,21.032 C91.4879946,22.4933406 89.8986771,23.224 87.808,23.224 Z M87.808,19.992 C88.6186707,19.992 89.1999982,19.5760042 89.552,18.744 C89.9040018,17.9119958 90.08,16.5360096 90.08,14.616 C90.08,12.6959904 89.9040018,11.3253374 89.552,10.504 C89.1999982,9.68266256 88.6186707,9.272 87.808,9.272 C86.9973293,9.272 86.4106685,9.68266256 86.048,10.504 C85.6853315,11.3253374 85.504,12.6959904 85.504,14.616 C85.504,16.5360096 85.6853315,17.9119958 86.048,18.744 C86.4106685,19.5760042 86.9973293,19.992 87.808,19.992 Z M101.024,23.256 C99.765327,23.256 98.8053366,22.8666706 98.144,22.088 C97.4826634,21.3093294 97.152,20.1946739 97.152,18.744 L97.152,7.128 C97.152,6.50933024 97.6959946,6.2 98.784,6.2 L99.584,6.2 C100.160003,6.2 100.575999,6.27466592 100.832,6.424 C101.088001,6.57333408 101.216,6.8079984 101.216,7.128 L101.216,17.912 C101.216,18.5733366 101.338665,19.0693317 101.584,19.4 C101.829335,19.7306683 102.229331,19.896 102.784,19.896 C103.210669,19.896 103.605332,19.762668 103.968,19.496 C104.330668,19.229332 104.629332,18.8826688 104.864,18.456 L104.864,7.128 C104.864,6.50933024 105.407995,6.2 106.496,6.2 L107.328,6.2 C108.394672,6.2 108.928,6.50933024 108.928,7.128 L108.928,17.72 C108.928,19.1706739 108.981333,20.2213301 109.088,20.872 C109.194667,21.5226699 109.248,21.9119994 109.248,22.04 C109.248,22.381335 108.885337,22.6266659 108.16,22.776 C107.434663,22.9253341 106.784003,23 106.208,23 C105.845332,23 105.600001,22.8773346 105.472,22.632 C105.343999,22.3866654 105.253334,22.0826685 105.2,21.72 C105.146666,21.3573315 105.098667,21.0693344 105.056,20.856 C104.586664,21.5600035 104.01067,22.1359978 103.328,22.584 C102.64533,23.0320022 101.877338,23.256 101.024,23.256 Z M116.928,23.224 C115.775994,23.224 114.84267,22.8560037 114.128,22.12 C113.41333,21.3839963 113.056,20.216008 113.056,18.616 L113.056,9.496 L112.48,9.496 C112.181332,9.496 111.962667,9.3893344 111.824,9.176 C111.685333,8.9626656 111.616,8.61066912 111.616,8.12 L111.616,7.64 C111.616,7.14933088 111.685333,6.7973344 111.824,6.584 C111.962667,6.3706656 112.181332,6.264 112.48,6.264 L113.056,6.264 L113.472,3.128 C113.536,2.50933024 114.026662,2.2 114.944,2.2 L115.712,2.2 C116.629338,2.2 117.088,2.50933024 117.088,3.128 L117.088,6.264 L118.592,6.264 C118.890668,6.264 119.109333,6.3706656 119.248,6.584 C119.386667,6.7973344 119.456,7.14933088 119.456,7.64 L119.456,8.12 C119.456,8.61066912 119.386667,8.9626656 119.248,9.176 C119.109333,9.3893344 118.890668,9.496 118.592,9.496 L117.088,9.496 L117.088,18.552 C117.088,19.0640026 117.167999,19.4319989 117.328,19.656 C117.488001,19.8800011 117.717332,19.992 118.016,19.992 C118.186668,19.992 118.367999,19.9706669 118.56,19.928 C118.752001,19.8853331 118.890666,19.864 118.976,19.864 C119.210668,19.864 119.413332,20.130664 119.584,20.664 C119.754668,21.197336 119.84,21.6026653 119.84,21.88 C119.84,22.3493357 119.525336,22.6906656 118.896,22.904 C118.266664,23.1173344 117.61067,23.224 116.928,23.224 Z M125.632,23.256 C124.522661,23.256 123.498671,23.0533354 122.56,22.648 C121.621329,22.2426646 121.152,21.7626694 121.152,21.208 C121.152,20.8239981 121.338665,20.3440029 121.712,19.768 C122.085335,19.1919971 122.410665,18.904 122.688,18.904 C122.752,18.904 122.933332,19.0053323 123.232,19.208 C123.530668,19.4106677 123.839998,19.5813326 124.16,19.72 C124.480002,19.8586674 124.842665,19.928 125.248,19.928 C125.781336,19.928 126.197332,19.7893347 126.496,19.512 C126.794668,19.2346653 126.944,18.829336 126.944,18.296 C126.944,17.7199971 126.757335,17.2506685 126.384,16.888 C126.010665,16.5253315 125.418671,16.1200022 124.608,15.672 C123.605328,15.138664 122.826669,14.5306701 122.272,13.848 C121.717331,13.1653299 121.44,12.2053395 121.44,10.968 C121.44,9.45332576 121.909329,8.24800448 122.848,7.352 C123.786671,6.45599552 125.013326,6.008 126.528,6.008 C127.466671,6.008 128.357329,6.15733184 129.2,6.456 C130.042671,6.75466816 130.464,7.170664 130.464,7.704 C130.464,8.06666848 130.325335,8.5413304 130.048,9.128 C129.770665,9.7146696 129.514668,10.008 129.28,10.008 C129.216,10.008 128.965336,9.89600112 128.528,9.672 C128.090664,9.44799888 127.616003,9.336 127.104,9.336 C126.613331,9.336 126.224001,9.45333216 125.936,9.688 C125.647999,9.92266784 125.504,10.2746643 125.504,10.744 C125.504,11.1493354 125.610666,11.4959986 125.824,11.784 C126.037334,12.0720014 126.266665,12.2959992 126.512,12.456 C126.757335,12.6160008 127.22133,12.8986646 127.904,13.304 C128.885338,13.837336 129.642664,14.466663 130.176,15.192 C130.709336,15.917337 130.976,16.8773274 130.976,18.072 C130.976,19.6293411 130.490672,20.8826619 129.52,21.832 C128.549328,22.7813381 127.253341,23.256 125.632,23.256 Z" id="path-1"></path>
    </defs>
    <g id="Page-1" stroke="none" stroke-width="1" fill="none" fill-rule="evenodd">
        <g id="W3Layouts" fill-rule="nonzero">
            <use fill="#000000" xlink:href="#path-1"></use>
            <use fill="#FFFFFF" xlink:href="#path-1"></use>
        </g>
    </g>
</svg>